<svg xmlns="http://www.w3.org/2000/svg" viewBox="0 0 64 64" shape-rendering="crispEdges">
  <rect width="64" height="64" fill="none"/>
  <rect x="20" y="4" width="24" height="4" fill="#181a1f"/>
  <rect x="12" y="8" width="40" height="4" fill="#181a1f"/>
  <rect x="8" y="12" width="48" height="8" fill="#181a1f"/>
  <rect x="4" y="20" width="56" height="24" fill="#181a1f"/>
  <rect x="8" y="44" width="48" height="8" fill="#181a1f"/>
  <rect x="12" y="52" width="40" height="4" fill="#181a1f"/>
  <rect x="20" y="56" width="24" height="4" fill="#181a1f"/>
  <rect x="20" y="8" width="24" height="4" fill="#2d6cdf"/>
  <rect x="12" y="12" width="40" height="8" fill="#2d6cdf"/>
  <rect x="8" y="20" width="48" height="24" fill="#2d6cdf"/>
  <rect x="12" y="44" width="40" height="8" fill="#2d6cdf"/>
  <rect x="20" y="52" width="24" height="4" fill="#2d6cdf"/>
  <rect x="16" y="16" width="12" height="8" fill="#4c956c"/>
  <rect x="28" y="20" width="8" height="8" fill="#4c956c"/>
  <rect x="40" y="16" width="8" height="12" fill="#4c956c"/>
  <rect x="12" y="32" width="16" height="8" fill="#4c956c"/>
  <rect x="36" y="36" width="12" height="8" fill="#4c956c"/>
  <rect x="28" y="44" width="8" height="8" fill="#4c956c"/>
  <rect x="20" y="8" width="12" height="4" fill="#63c4c7"/>
  <rect x="12" y="20" width="8" height="4" fill="#63c4c7"/>
  <rect x="44" y="28" width="8" height="4" fill="#63c4c7"/>
  <rect x="48" y="44" width="4" height="4" fill="#63c4c7"/>
  <rect x="26" y="0" width="12" height="4" fill="#d59b2b"/>
  <rect x="30" y="60" width="4" height="4" fill="#d59b2b"/>
</svg>
